<svg width="24" height="23" viewBox="0 0 24 23" fill="none" xmlns="http://www.w3.org/2000/svg">
<path d="M9.14663 12.7742C9.14663 12.9138 9.11913 13.052 9.0657 13.181C9.01228 13.31 8.93397 13.4272 8.83525 13.5259C8.73654 13.6246 8.61934 13.7029 8.49036 13.7563C8.36138 13.8098 8.22314 13.8373 8.08353 13.8373C7.94393 13.8373 7.80569 13.8098 7.67671 13.7563C7.54773 13.7029 7.43053 13.6246 7.33182 13.5259C7.2331 13.4272 7.15479 13.31 7.10137 13.181C7.04794 13.052 7.02044 12.9138 7.02044 12.7742C7.02044 12.4922 7.13245 12.2218 7.33182 12.0225C7.53118 11.8231 7.80159 11.7111 8.08353 11.7111C8.36548 11.7111 8.63589 11.8231 8.83525 12.0225C9.03462 12.2218 9.14663 12.4922 9.14663 12.7742ZM15.8871 13.8373C16.0267 13.8373 16.165 13.8098 16.2939 13.7563C16.4229 13.7029 16.5401 13.6246 16.6388 13.5259C16.7375 13.4272 16.8158 13.31 16.8693 13.181C16.9227 13.052 16.9502 12.9138 16.9502 12.7742C16.9502 12.6346 16.9227 12.4963 16.8693 12.3673C16.8158 12.2384 16.7375 12.1212 16.6388 12.0225C16.5401 11.9237 16.4229 11.8454 16.2939 11.792C16.165 11.7386 16.0267 11.7111 15.8871 11.7111C15.6052 11.7111 15.3348 11.8231 15.1354 12.0225C14.936 12.2218 14.824 12.4922 14.824 12.7742C14.824 13.0561 14.936 13.3265 15.1354 13.5259C15.3348 13.7253 15.6052 13.8373 15.8871 13.8373ZM4.93684 8.62116L4.95104 8.51613H4.17891C3.99069 8.51613 3.81019 8.44136 3.6771 8.30827C3.54401 8.17518 3.46924 7.99468 3.46924 7.80646C3.46924 7.61824 3.54401 7.43773 3.6771 7.30465C3.81019 7.17156 3.99069 7.09679 4.17891 7.09679H5.13413L5.36407 5.31409C5.45242 4.62947 5.78721 4.00051 6.30579 3.5449C6.82436 3.08929 7.49118 2.83824 8.18147 2.83875H15.7892C16.4799 2.83872 17.1469 3.09052 17.6652 3.54697C18.1836 4.00342 18.5178 4.6332 18.6052 5.31834L18.8308 7.09679H19.7917C19.9799 7.09679 20.1605 7.17156 20.2935 7.30465C20.4266 7.43773 20.5014 7.61824 20.5014 7.80646C20.5014 7.99468 20.4266 8.17518 20.2935 8.30827C20.1605 8.44136 19.9799 8.51613 19.7917 8.51613H19.0125L19.0267 8.61833C19.4553 8.75675 19.8289 9.02752 20.0939 9.39172C20.3589 9.75591 20.5016 10.1948 20.5014 10.6452V14.9032C20.5014 15.4678 20.2771 16.0094 19.8778 16.4086C19.4786 16.8079 18.937 17.0322 18.3724 17.0322H18.3681V18.8064C18.3681 19.0887 18.256 19.3595 18.0563 19.5591C17.8567 19.7588 17.5859 19.8709 17.3036 19.8709C17.0213 19.8709 16.7505 19.7588 16.5509 19.5591C16.3513 19.3595 16.2391 19.0887 16.2391 18.8064V17.0322H7.72728V18.8064C7.72728 19.0887 7.61513 19.3595 7.41549 19.5591C7.21586 19.7588 6.94509 19.8709 6.66277 19.8709C6.38044 19.8709 6.10968 19.7588 5.91005 19.5591C5.71041 19.3595 5.59826 19.0887 5.59826 18.8064V17.0322C5.03361 17.0322 4.49208 16.8079 4.09281 16.4086C3.69355 16.0094 3.46924 15.4678 3.46924 14.9032V10.6452C3.46917 10.1961 3.61108 9.75857 3.87467 9.39505C4.13826 9.03153 4.51003 8.76066 4.93684 8.62116ZM6.77206 5.49576L6.38174 8.51613H17.5818L17.1957 5.49718C17.1519 5.15498 16.985 4.84045 16.7261 4.61241C16.4672 4.38436 16.1342 4.2584 15.7892 4.25809H8.18147C7.83645 4.25801 7.50321 4.38361 7.24407 4.61141C6.98493 4.8392 6.81622 5.15358 6.77206 5.49576ZM18.3724 15.6129C18.5606 15.6129 18.7411 15.5381 18.8742 15.405C19.0073 15.2719 19.0821 15.0914 19.0821 14.9032V10.6452C19.0821 10.4569 19.0073 10.2764 18.8742 10.1433C18.7411 10.0102 18.5606 9.93548 18.3724 9.93548H5.59826C5.41004 9.93548 5.22953 10.0102 5.09644 10.1433C4.96335 10.2764 4.88859 10.4569 4.88859 10.6452V14.9032C4.88859 15.0914 4.96335 15.2719 5.09644 15.405C5.22953 15.5381 5.41004 15.6129 5.59826 15.6129H18.3724Z" fill="#3C82F6"/>
</svg>
