<svg width="24" height="26" viewBox="0 0 24 26" fill="none" xmlns="http://www.w3.org/2000/svg">
<path d="M11.6435 2.22253C18.0432 2.22253 23.2308 7.41019 23.2308 13.8099C23.2308 20.2096 18.0432 25.3972 11.6435 25.3972C5.2438 25.3972 0.0561523 20.2096 0.0561523 13.8099C0.0561523 7.41019 5.2438 2.22253 11.6435 2.22253ZM11.6435 4.54C9.18497 4.54 6.82714 5.51665 5.0887 7.25509C3.35027 8.99352 2.37362 11.3514 2.37362 13.8099C2.37362 16.2684 3.35027 18.6262 5.0887 20.3647C6.82714 22.1031 9.18497 23.0797 11.6435 23.0797C14.102 23.0797 16.4598 22.1031 18.1983 20.3647C19.9367 18.6262 20.9134 16.2684 20.9134 13.8099C20.9134 11.3514 19.9367 8.99352 18.1983 7.25509C16.4598 5.51665 14.102 4.54 11.6435 4.54ZM11.6435 6.85747C11.9273 6.85751 12.2012 6.96171 12.4133 7.1503C12.6254 7.33889 12.7609 7.59877 12.7941 7.88063L12.8022 8.0162V13.3302L15.9389 16.4669C16.1467 16.6754 16.2674 16.9552 16.2764 17.2494C16.2854 17.5437 16.182 17.8303 15.9873 18.0512C15.7926 18.272 15.5211 18.4104 15.2281 18.4383C14.935 18.4662 14.6423 18.3816 14.4094 18.2015L14.3005 18.1053L10.8243 14.6291C10.6442 14.4489 10.5285 14.2143 10.4952 13.9617L10.4848 13.8099V8.0162C10.4848 7.70889 10.6068 7.41416 10.8241 7.19686C11.0414 6.97955 11.3362 6.85747 11.6435 6.85747Z" fill="#CA8A03"/>
</svg>
